# xmcd CD database file
#
# Track frame offsets:
#	150
#	7406
#	26698
#	46509
#	67596
#	90281
#	102282
#	119418
#	139088
#	159898
#	180208
#	195877
#	216015
#
# Disc length: 3171 seconds
#
# Revision: 0
# Processed by: cddbd v1.5.1PL2 Copyright (c) Steve Scherf et al.
# Submitted via: CDex 1.40Release
#
DISCID=930c610d
DTITLE=Caravan - Wander Around
DYEAR=2006
DGENRE=Rock
TTITLE0=BLESSING
TTITLE1=FREE BYRD
TTITLE2=Wagon
TTITLE3=TRIPPIN'LIFE
TTITLE4=Simple
TTITLE5=St.Marks Church
TTITLE6=Bohemian Blues
TTITLE7=Changes
TTITLE8=Daydream
TTITLE9=Music Save My Life
TTITLE10=台風
TTITLE11=Rock&Roll
TTITLE12=Love&Free World
EXTD=YEAR: 2006 ID3G: 17
EXTT0=
EXTT1=
EXTT2=
EXTT3=
EXTT4=
EXTT5=
EXTT6=
EXTT7=
EXTT8=
EXTT9=
EXTT10=
EXTT11=
EXTT12=
PLAYORDER=
